<svg id="Layer_1" data-name="Layer 1" xmlns="http://www.w3.org/2000/svg" viewBox="0 0 603 839"><defs><style>.cls-1{fill:#fff;}</style></defs><title>rom</title><rect class="cls-1" x="6" y="6" width="249" height="274"/><path d="M372,104V366H135V104H372m12-12H123V378H384V92Z" transform="translate(-123 -92)"/><rect class="cls-1" x="6" y="283" width="249" height="274"/><path d="M372,381V643H135V381H372m12-12H123V655H384V369Z" transform="translate(-123 -92)"/><rect class="cls-1" x="348" y="6" width="249" height="274"/><path d="M714,104V366H477V104H714m12-12H465V378H726V92Z" transform="translate(-123 -92)"/><rect class="cls-1" x="348" y="283" width="249" height="274"/><path d="M714,381V643H477V381H714m12-12H465V655H726V369Z" transform="translate(-123 -92)"/><rect class="cls-1" x="6" y="559" width="591" height="274"/><path d="M714,657V919H135V657H714m12-12H123V931H726V645Z" transform="translate(-123 -92)"/></svg>